<mxfile host="Electron" agent="Mozilla/5.0 (Macintosh; Intel Mac OS X 10_15_7) AppleWebKit/537.36 (KHTML, like Gecko) draw.io/28.0.6 Chrome/138.0.7204.100 Electron/37.2.3 Safari/537.36" version="28.0.6">
  <diagram name="Page-1" id="ULUkzhYgD6v_UmCpMm7Z">
    <mxGraphModel dx="3225" dy="1708" grid="0" gridSize="10" guides="1" tooltips="1" connect="1" arrows="1" fold="1" page="0" pageScale="1" pageWidth="827" pageHeight="1169" math="0" shadow="0">
      <root>
        <mxCell id="0" />
        <mxCell id="1" parent="0" />
        <mxCell id="zK0bSrZWnV2F1K7VGcgv-6" value="" style="rounded=0;whiteSpace=wrap;html=1;" vertex="1" parent="1">
          <mxGeometry x="248" y="-29" width="120" height="60" as="geometry" />
        </mxCell>
        <mxCell id="zK0bSrZWnV2F1K7VGcgv-8" value="" style="rounded=0;whiteSpace=wrap;html=1;fillColor=#D4E1F5;" vertex="1" parent="1">
          <mxGeometry x="368" y="-29" width="120" height="60" as="geometry" />
        </mxCell>
        <mxCell id="zK0bSrZWnV2F1K7VGcgv-9" value="" style="rounded=0;whiteSpace=wrap;html=1;fillColor=#D4E1F5;" vertex="1" parent="1">
          <mxGeometry x="488" y="-29" width="120" height="60" as="geometry" />
        </mxCell>
        <mxCell id="zK0bSrZWnV2F1K7VGcgv-10" value="" style="rounded=0;whiteSpace=wrap;html=1;fillColor=#D4E1F5;" vertex="1" parent="1">
          <mxGeometry x="608" y="-29" width="120" height="60" as="geometry" />
        </mxCell>
        <mxCell id="zK0bSrZWnV2F1K7VGcgv-11" value="" style="rounded=0;whiteSpace=wrap;html=1;fillColor=#D4E1F5;" vertex="1" parent="1">
          <mxGeometry x="248" y="31" width="120" height="60" as="geometry" />
        </mxCell>
        <mxCell id="zK0bSrZWnV2F1K7VGcgv-12" value="" style="rounded=0;whiteSpace=wrap;html=1;fillColor=#D4E1F5;" vertex="1" parent="1">
          <mxGeometry x="368" y="31" width="120" height="60" as="geometry" />
        </mxCell>
        <mxCell id="zK0bSrZWnV2F1K7VGcgv-13" value="" style="rounded=0;whiteSpace=wrap;html=1;fillColor=#D4E1F5;" vertex="1" parent="1">
          <mxGeometry x="488" y="31" width="120" height="60" as="geometry" />
        </mxCell>
        <mxCell id="zK0bSrZWnV2F1K7VGcgv-14" value="" style="rounded=0;whiteSpace=wrap;html=1;fillColor=#D4E1F5;" vertex="1" parent="1">
          <mxGeometry x="608" y="31" width="120" height="60" as="geometry" />
        </mxCell>
        <mxCell id="zK0bSrZWnV2F1K7VGcgv-15" value="" style="rounded=0;whiteSpace=wrap;html=1;" vertex="1" parent="1">
          <mxGeometry x="248" y="91" width="120" height="60" as="geometry" />
        </mxCell>
        <mxCell id="zK0bSrZWnV2F1K7VGcgv-16" value="" style="rounded=0;whiteSpace=wrap;html=1;fillColor=#D4E1F5;" vertex="1" parent="1">
          <mxGeometry x="368" y="91" width="120" height="60" as="geometry" />
        </mxCell>
        <mxCell id="zK0bSrZWnV2F1K7VGcgv-17" value="" style="rounded=0;whiteSpace=wrap;html=1;fillColor=#D4E1F5;" vertex="1" parent="1">
          <mxGeometry x="488" y="91" width="120" height="60" as="geometry" />
        </mxCell>
        <mxCell id="zK0bSrZWnV2F1K7VGcgv-18" value="" style="rounded=0;whiteSpace=wrap;html=1;fillColor=#D4E1F5;" vertex="1" parent="1">
          <mxGeometry x="608" y="91" width="120" height="60" as="geometry" />
        </mxCell>
        <mxCell id="zK0bSrZWnV2F1K7VGcgv-19" value="&lt;font style=&quot;font-size: 18px;&quot;&gt;0&lt;/font&gt;" style="text;html=1;align=center;verticalAlign=middle;whiteSpace=wrap;rounded=0;" vertex="1" parent="1">
          <mxGeometry x="288.5" y="-13.5" width="39" height="29" as="geometry" />
        </mxCell>
        <mxCell id="zK0bSrZWnV2F1K7VGcgv-20" value="&lt;font style=&quot;font-size: 18px;&quot;&gt;1&lt;/font&gt;" style="text;html=1;align=center;verticalAlign=middle;whiteSpace=wrap;rounded=0;" vertex="1" parent="1">
          <mxGeometry x="408.5" y="-13.5" width="39" height="29" as="geometry" />
        </mxCell>
        <mxCell id="zK0bSrZWnV2F1K7VGcgv-21" value="&lt;font style=&quot;font-size: 18px;&quot;&gt;0&lt;/font&gt;" style="text;html=1;align=center;verticalAlign=middle;whiteSpace=wrap;rounded=0;" vertex="1" parent="1">
          <mxGeometry x="288.5" y="106.5" width="39" height="29" as="geometry" />
        </mxCell>
        <mxCell id="zK0bSrZWnV2F1K7VGcgv-22" value="&lt;font style=&quot;font-size: 18px;&quot;&gt;1&lt;/font&gt;" style="text;html=1;align=center;verticalAlign=middle;whiteSpace=wrap;rounded=0;" vertex="1" parent="1">
          <mxGeometry x="288.5" y="46.5" width="39" height="29" as="geometry" />
        </mxCell>
        <mxCell id="zK0bSrZWnV2F1K7VGcgv-23" value="&lt;font style=&quot;font-size: 18px;&quot;&gt;1&lt;/font&gt;" style="text;html=1;align=center;verticalAlign=middle;whiteSpace=wrap;rounded=0;" vertex="1" parent="1">
          <mxGeometry x="408.5" y="46.5" width="39" height="29" as="geometry" />
        </mxCell>
        <mxCell id="zK0bSrZWnV2F1K7VGcgv-24" value="&lt;font style=&quot;font-size: 18px;&quot;&gt;1&lt;/font&gt;" style="text;html=1;align=center;verticalAlign=middle;whiteSpace=wrap;rounded=0;" vertex="1" parent="1">
          <mxGeometry x="408.5" y="106.5" width="39" height="29" as="geometry" />
        </mxCell>
        <mxCell id="zK0bSrZWnV2F1K7VGcgv-25" value="&lt;font style=&quot;font-size: 18px;&quot;&gt;1&lt;/font&gt;" style="text;html=1;align=center;verticalAlign=middle;whiteSpace=wrap;rounded=0;" vertex="1" parent="1">
          <mxGeometry x="528.5" y="106.5" width="39" height="29" as="geometry" />
        </mxCell>
        <mxCell id="zK0bSrZWnV2F1K7VGcgv-28" value="&lt;font style=&quot;font-size: 18px;&quot;&gt;1&lt;/font&gt;" style="text;html=1;align=center;verticalAlign=middle;whiteSpace=wrap;rounded=0;" vertex="1" parent="1">
          <mxGeometry x="528.5" y="46.5" width="39" height="29" as="geometry" />
        </mxCell>
        <mxCell id="zK0bSrZWnV2F1K7VGcgv-29" value="&lt;font style=&quot;font-size: 18px;&quot;&gt;1&lt;/font&gt;" style="text;html=1;align=center;verticalAlign=middle;whiteSpace=wrap;rounded=0;" vertex="1" parent="1">
          <mxGeometry x="528.5" y="-13.5" width="39" height="29" as="geometry" />
        </mxCell>
        <mxCell id="zK0bSrZWnV2F1K7VGcgv-30" value="&lt;font style=&quot;font-size: 18px;&quot;&gt;1&lt;/font&gt;" style="text;html=1;align=center;verticalAlign=middle;whiteSpace=wrap;rounded=0;" vertex="1" parent="1">
          <mxGeometry x="648.5" y="106.5" width="39" height="29" as="geometry" />
        </mxCell>
        <mxCell id="zK0bSrZWnV2F1K7VGcgv-31" value="&lt;font style=&quot;font-size: 18px;&quot;&gt;1&lt;/font&gt;" style="text;html=1;align=center;verticalAlign=middle;whiteSpace=wrap;rounded=0;" vertex="1" parent="1">
          <mxGeometry x="648.5" y="46.5" width="39" height="29" as="geometry" />
        </mxCell>
        <mxCell id="zK0bSrZWnV2F1K7VGcgv-32" value="&lt;font style=&quot;font-size: 18px;&quot;&gt;1&lt;/font&gt;" style="text;html=1;align=center;verticalAlign=middle;whiteSpace=wrap;rounded=0;" vertex="1" parent="1">
          <mxGeometry x="648.5" y="-13.5" width="39" height="29" as="geometry" />
        </mxCell>
        <mxCell id="zK0bSrZWnV2F1K7VGcgv-33" value="" style="rounded=0;whiteSpace=wrap;html=1;" vertex="1" parent="1">
          <mxGeometry x="248" y="200" width="120" height="60" as="geometry" />
        </mxCell>
        <mxCell id="zK0bSrZWnV2F1K7VGcgv-34" value="" style="rounded=0;whiteSpace=wrap;html=1;fillColor=#99FF33;" vertex="1" parent="1">
          <mxGeometry x="368" y="200" width="120" height="60" as="geometry" />
        </mxCell>
        <mxCell id="zK0bSrZWnV2F1K7VGcgv-35" value="" style="rounded=0;whiteSpace=wrap;html=1;fillColor=#99FF33;" vertex="1" parent="1">
          <mxGeometry x="488" y="200" width="120" height="60" as="geometry" />
        </mxCell>
        <mxCell id="zK0bSrZWnV2F1K7VGcgv-36" value="" style="rounded=0;whiteSpace=wrap;html=1;" vertex="1" parent="1">
          <mxGeometry x="608" y="200" width="120" height="60" as="geometry" />
        </mxCell>
        <mxCell id="zK0bSrZWnV2F1K7VGcgv-37" value="" style="rounded=0;whiteSpace=wrap;html=1;" vertex="1" parent="1">
          <mxGeometry x="248" y="260" width="120" height="60" as="geometry" />
        </mxCell>
        <mxCell id="zK0bSrZWnV2F1K7VGcgv-38" value="" style="rounded=0;whiteSpace=wrap;html=1;fillColor=#99FF33;" vertex="1" parent="1">
          <mxGeometry x="368" y="260" width="120" height="60" as="geometry" />
        </mxCell>
        <mxCell id="zK0bSrZWnV2F1K7VGcgv-39" value="" style="rounded=0;whiteSpace=wrap;html=1;fillColor=#99FF33;" vertex="1" parent="1">
          <mxGeometry x="488" y="260" width="120" height="60" as="geometry" />
        </mxCell>
        <mxCell id="zK0bSrZWnV2F1K7VGcgv-40" value="" style="rounded=0;whiteSpace=wrap;html=1;" vertex="1" parent="1">
          <mxGeometry x="608" y="260" width="120" height="60" as="geometry" />
        </mxCell>
        <mxCell id="zK0bSrZWnV2F1K7VGcgv-41" value="" style="rounded=0;whiteSpace=wrap;html=1;" vertex="1" parent="1">
          <mxGeometry x="248" y="320" width="120" height="60" as="geometry" />
        </mxCell>
        <mxCell id="zK0bSrZWnV2F1K7VGcgv-42" value="" style="rounded=0;whiteSpace=wrap;html=1;" vertex="1" parent="1">
          <mxGeometry x="368" y="320" width="120" height="60" as="geometry" />
        </mxCell>
        <mxCell id="zK0bSrZWnV2F1K7VGcgv-43" value="" style="rounded=0;whiteSpace=wrap;html=1;" vertex="1" parent="1">
          <mxGeometry x="488" y="320" width="120" height="60" as="geometry" />
        </mxCell>
        <mxCell id="zK0bSrZWnV2F1K7VGcgv-44" value="" style="rounded=0;whiteSpace=wrap;html=1;" vertex="1" parent="1">
          <mxGeometry x="608" y="320" width="120" height="60" as="geometry" />
        </mxCell>
        <mxCell id="zK0bSrZWnV2F1K7VGcgv-45" value="&lt;font style=&quot;font-size: 18px;&quot;&gt;0&lt;/font&gt;" style="text;html=1;align=center;verticalAlign=middle;whiteSpace=wrap;rounded=0;" vertex="1" parent="1">
          <mxGeometry x="288.5" y="215.5" width="39" height="29" as="geometry" />
        </mxCell>
        <mxCell id="zK0bSrZWnV2F1K7VGcgv-46" value="&lt;font style=&quot;font-size: 18px;&quot;&gt;1&lt;/font&gt;" style="text;html=1;align=center;verticalAlign=middle;whiteSpace=wrap;rounded=0;" vertex="1" parent="1">
          <mxGeometry x="408.5" y="215.5" width="39" height="29" as="geometry" />
        </mxCell>
        <mxCell id="zK0bSrZWnV2F1K7VGcgv-47" value="&lt;font style=&quot;font-size: 18px;&quot;&gt;0&lt;/font&gt;" style="text;html=1;align=center;verticalAlign=middle;whiteSpace=wrap;rounded=0;" vertex="1" parent="1">
          <mxGeometry x="288.5" y="335.5" width="39" height="29" as="geometry" />
        </mxCell>
        <mxCell id="zK0bSrZWnV2F1K7VGcgv-48" value="&lt;font style=&quot;font-size: 18px;&quot;&gt;1&lt;/font&gt;" style="text;html=1;align=center;verticalAlign=middle;whiteSpace=wrap;rounded=0;" vertex="1" parent="1">
          <mxGeometry x="288.5" y="275.5" width="39" height="29" as="geometry" />
        </mxCell>
        <mxCell id="zK0bSrZWnV2F1K7VGcgv-49" value="&lt;font style=&quot;font-size: 18px;&quot;&gt;1&lt;/font&gt;" style="text;html=1;align=center;verticalAlign=middle;whiteSpace=wrap;rounded=0;" vertex="1" parent="1">
          <mxGeometry x="408.5" y="275.5" width="39" height="29" as="geometry" />
        </mxCell>
        <mxCell id="zK0bSrZWnV2F1K7VGcgv-50" value="&lt;font style=&quot;font-size: 18px;&quot;&gt;1&lt;/font&gt;" style="text;html=1;align=center;verticalAlign=middle;whiteSpace=wrap;rounded=0;" vertex="1" parent="1">
          <mxGeometry x="408.5" y="335.5" width="39" height="29" as="geometry" />
        </mxCell>
        <mxCell id="zK0bSrZWnV2F1K7VGcgv-51" value="&lt;font style=&quot;font-size: 18px;&quot;&gt;1&lt;/font&gt;" style="text;html=1;align=center;verticalAlign=middle;whiteSpace=wrap;rounded=0;" vertex="1" parent="1">
          <mxGeometry x="528.5" y="335.5" width="39" height="29" as="geometry" />
        </mxCell>
        <mxCell id="zK0bSrZWnV2F1K7VGcgv-52" value="&lt;font style=&quot;font-size: 18px;&quot;&gt;1&lt;/font&gt;" style="text;html=1;align=center;verticalAlign=middle;whiteSpace=wrap;rounded=0;" vertex="1" parent="1">
          <mxGeometry x="528.5" y="275.5" width="39" height="29" as="geometry" />
        </mxCell>
        <mxCell id="zK0bSrZWnV2F1K7VGcgv-53" value="&lt;font style=&quot;font-size: 18px;&quot;&gt;1&lt;/font&gt;" style="text;html=1;align=center;verticalAlign=middle;whiteSpace=wrap;rounded=0;" vertex="1" parent="1">
          <mxGeometry x="528.5" y="215.5" width="39" height="29" as="geometry" />
        </mxCell>
        <mxCell id="zK0bSrZWnV2F1K7VGcgv-54" value="&lt;font style=&quot;font-size: 18px;&quot;&gt;1&lt;/font&gt;" style="text;html=1;align=center;verticalAlign=middle;whiteSpace=wrap;rounded=0;" vertex="1" parent="1">
          <mxGeometry x="648.5" y="335.5" width="39" height="29" as="geometry" />
        </mxCell>
        <mxCell id="zK0bSrZWnV2F1K7VGcgv-55" value="&lt;font style=&quot;font-size: 18px;&quot;&gt;1&lt;/font&gt;" style="text;html=1;align=center;verticalAlign=middle;whiteSpace=wrap;rounded=0;" vertex="1" parent="1">
          <mxGeometry x="648.5" y="275.5" width="39" height="29" as="geometry" />
        </mxCell>
        <mxCell id="zK0bSrZWnV2F1K7VGcgv-56" value="&lt;font style=&quot;font-size: 18px;&quot;&gt;1&lt;/font&gt;" style="text;html=1;align=center;verticalAlign=middle;whiteSpace=wrap;rounded=0;" vertex="1" parent="1">
          <mxGeometry x="648.5" y="215.5" width="39" height="29" as="geometry" />
        </mxCell>
        <mxCell id="zK0bSrZWnV2F1K7VGcgv-57" value="" style="rounded=0;whiteSpace=wrap;html=1;" vertex="1" parent="1">
          <mxGeometry x="248" y="628" width="120" height="60" as="geometry" />
        </mxCell>
        <mxCell id="zK0bSrZWnV2F1K7VGcgv-58" value="" style="rounded=0;whiteSpace=wrap;html=1;fillColor=#CDA2BE;" vertex="1" parent="1">
          <mxGeometry x="368" y="628" width="120" height="60" as="geometry" />
        </mxCell>
        <mxCell id="zK0bSrZWnV2F1K7VGcgv-59" value="" style="rounded=0;whiteSpace=wrap;html=1;fillColor=#CDA2BE;" vertex="1" parent="1">
          <mxGeometry x="488" y="628" width="120" height="60" as="geometry" />
        </mxCell>
        <mxCell id="zK0bSrZWnV2F1K7VGcgv-60" value="" style="rounded=0;whiteSpace=wrap;html=1;fillColor=#CDA2BE;" vertex="1" parent="1">
          <mxGeometry x="608" y="628" width="120" height="60" as="geometry" />
        </mxCell>
        <mxCell id="zK0bSrZWnV2F1K7VGcgv-61" value="" style="rounded=0;whiteSpace=wrap;html=1;" vertex="1" parent="1">
          <mxGeometry x="248" y="688" width="120" height="60" as="geometry" />
        </mxCell>
        <mxCell id="zK0bSrZWnV2F1K7VGcgv-62" value="" style="rounded=0;whiteSpace=wrap;html=1;fillColor=#CDA2BE;" vertex="1" parent="1">
          <mxGeometry x="368" y="688" width="120" height="60" as="geometry" />
        </mxCell>
        <mxCell id="zK0bSrZWnV2F1K7VGcgv-63" value="" style="rounded=0;whiteSpace=wrap;html=1;fillColor=#CDA2BE;" vertex="1" parent="1">
          <mxGeometry x="488" y="688" width="120" height="60" as="geometry" />
        </mxCell>
        <mxCell id="zK0bSrZWnV2F1K7VGcgv-64" value="" style="rounded=0;whiteSpace=wrap;html=1;fillColor=#CDA2BE;" vertex="1" parent="1">
          <mxGeometry x="608" y="688" width="120" height="60" as="geometry" />
        </mxCell>
        <mxCell id="zK0bSrZWnV2F1K7VGcgv-65" value="" style="rounded=0;whiteSpace=wrap;html=1;" vertex="1" parent="1">
          <mxGeometry x="248" y="748" width="120" height="60" as="geometry" />
        </mxCell>
        <mxCell id="zK0bSrZWnV2F1K7VGcgv-66" value="" style="rounded=0;whiteSpace=wrap;html=1;fillColor=#CDA2BE;" vertex="1" parent="1">
          <mxGeometry x="368" y="748" width="120" height="60" as="geometry" />
        </mxCell>
        <mxCell id="zK0bSrZWnV2F1K7VGcgv-67" value="" style="rounded=0;whiteSpace=wrap;html=1;fillColor=#CDA2BE;" vertex="1" parent="1">
          <mxGeometry x="488" y="748" width="120" height="60" as="geometry" />
        </mxCell>
        <mxCell id="zK0bSrZWnV2F1K7VGcgv-68" value="" style="rounded=0;whiteSpace=wrap;html=1;fillColor=#CDA2BE;" vertex="1" parent="1">
          <mxGeometry x="608" y="748" width="120" height="60" as="geometry" />
        </mxCell>
        <mxCell id="zK0bSrZWnV2F1K7VGcgv-69" value="&lt;font style=&quot;font-size: 18px;&quot;&gt;0&lt;/font&gt;" style="text;html=1;align=center;verticalAlign=middle;whiteSpace=wrap;rounded=0;" vertex="1" parent="1">
          <mxGeometry x="288.5" y="643.5" width="39" height="29" as="geometry" />
        </mxCell>
        <mxCell id="zK0bSrZWnV2F1K7VGcgv-70" value="&lt;font style=&quot;font-size: 18px;&quot;&gt;1&lt;/font&gt;" style="text;html=1;align=center;verticalAlign=middle;whiteSpace=wrap;rounded=0;" vertex="1" parent="1">
          <mxGeometry x="408.5" y="643.5" width="39" height="29" as="geometry" />
        </mxCell>
        <mxCell id="zK0bSrZWnV2F1K7VGcgv-71" value="&lt;font style=&quot;font-size: 18px;&quot;&gt;0&lt;/font&gt;" style="text;html=1;align=center;verticalAlign=middle;whiteSpace=wrap;rounded=0;" vertex="1" parent="1">
          <mxGeometry x="288.5" y="763.5" width="39" height="29" as="geometry" />
        </mxCell>
        <mxCell id="zK0bSrZWnV2F1K7VGcgv-72" value="&lt;font style=&quot;font-size: 18px;&quot;&gt;1&lt;/font&gt;" style="text;html=1;align=center;verticalAlign=middle;whiteSpace=wrap;rounded=0;" vertex="1" parent="1">
          <mxGeometry x="288.5" y="703.5" width="39" height="29" as="geometry" />
        </mxCell>
        <mxCell id="zK0bSrZWnV2F1K7VGcgv-73" value="&lt;font style=&quot;font-size: 18px;&quot;&gt;1&lt;/font&gt;" style="text;html=1;align=center;verticalAlign=middle;whiteSpace=wrap;rounded=0;" vertex="1" parent="1">
          <mxGeometry x="408.5" y="703.5" width="39" height="29" as="geometry" />
        </mxCell>
        <mxCell id="zK0bSrZWnV2F1K7VGcgv-74" value="&lt;font style=&quot;font-size: 18px;&quot;&gt;1&lt;/font&gt;" style="text;html=1;align=center;verticalAlign=middle;whiteSpace=wrap;rounded=0;" vertex="1" parent="1">
          <mxGeometry x="408.5" y="763.5" width="39" height="29" as="geometry" />
        </mxCell>
        <mxCell id="zK0bSrZWnV2F1K7VGcgv-75" value="&lt;font style=&quot;font-size: 18px;&quot;&gt;1&lt;/font&gt;" style="text;html=1;align=center;verticalAlign=middle;whiteSpace=wrap;rounded=0;" vertex="1" parent="1">
          <mxGeometry x="528.5" y="763.5" width="39" height="29" as="geometry" />
        </mxCell>
        <mxCell id="zK0bSrZWnV2F1K7VGcgv-76" value="&lt;font style=&quot;font-size: 18px;&quot;&gt;1&lt;/font&gt;" style="text;html=1;align=center;verticalAlign=middle;whiteSpace=wrap;rounded=0;" vertex="1" parent="1">
          <mxGeometry x="528.5" y="703.5" width="39" height="29" as="geometry" />
        </mxCell>
        <mxCell id="zK0bSrZWnV2F1K7VGcgv-77" value="&lt;font style=&quot;font-size: 18px;&quot;&gt;1&lt;/font&gt;" style="text;html=1;align=center;verticalAlign=middle;whiteSpace=wrap;rounded=0;" vertex="1" parent="1">
          <mxGeometry x="528.5" y="643.5" width="39" height="29" as="geometry" />
        </mxCell>
        <mxCell id="zK0bSrZWnV2F1K7VGcgv-78" value="&lt;font style=&quot;font-size: 18px;&quot;&gt;1&lt;/font&gt;" style="text;html=1;align=center;verticalAlign=middle;whiteSpace=wrap;rounded=0;" vertex="1" parent="1">
          <mxGeometry x="648.5" y="763.5" width="39" height="29" as="geometry" />
        </mxCell>
        <mxCell id="zK0bSrZWnV2F1K7VGcgv-79" value="&lt;font style=&quot;font-size: 18px;&quot;&gt;1&lt;/font&gt;" style="text;html=1;align=center;verticalAlign=middle;whiteSpace=wrap;rounded=0;" vertex="1" parent="1">
          <mxGeometry x="648.5" y="703.5" width="39" height="29" as="geometry" />
        </mxCell>
        <mxCell id="zK0bSrZWnV2F1K7VGcgv-80" value="&lt;font style=&quot;font-size: 18px;&quot;&gt;1&lt;/font&gt;" style="text;html=1;align=center;verticalAlign=middle;whiteSpace=wrap;rounded=0;" vertex="1" parent="1">
          <mxGeometry x="648.5" y="643.5" width="39" height="29" as="geometry" />
        </mxCell>
        <mxCell id="zK0bSrZWnV2F1K7VGcgv-129" value="" style="rounded=0;whiteSpace=wrap;html=1;" vertex="1" parent="1">
          <mxGeometry x="753" y="200" width="120" height="60" as="geometry" />
        </mxCell>
        <mxCell id="zK0bSrZWnV2F1K7VGcgv-130" value="" style="rounded=0;whiteSpace=wrap;html=1;" vertex="1" parent="1">
          <mxGeometry x="873" y="200" width="120" height="60" as="geometry" />
        </mxCell>
        <mxCell id="zK0bSrZWnV2F1K7VGcgv-131" value="" style="rounded=0;whiteSpace=wrap;html=1;" vertex="1" parent="1">
          <mxGeometry x="993" y="200" width="120" height="60" as="geometry" />
        </mxCell>
        <mxCell id="zK0bSrZWnV2F1K7VGcgv-132" value="" style="rounded=0;whiteSpace=wrap;html=1;" vertex="1" parent="1">
          <mxGeometry x="1113" y="200" width="120" height="60" as="geometry" />
        </mxCell>
        <mxCell id="zK0bSrZWnV2F1K7VGcgv-133" value="" style="rounded=0;whiteSpace=wrap;html=1;" vertex="1" parent="1">
          <mxGeometry x="753" y="260" width="120" height="60" as="geometry" />
        </mxCell>
        <mxCell id="zK0bSrZWnV2F1K7VGcgv-134" value="" style="rounded=0;whiteSpace=wrap;html=1;fillColor=#99FF33;" vertex="1" parent="1">
          <mxGeometry x="873" y="260" width="120" height="60" as="geometry" />
        </mxCell>
        <mxCell id="zK0bSrZWnV2F1K7VGcgv-135" value="" style="rounded=0;whiteSpace=wrap;html=1;fillColor=#99FF33;" vertex="1" parent="1">
          <mxGeometry x="993" y="260" width="120" height="60" as="geometry" />
        </mxCell>
        <mxCell id="zK0bSrZWnV2F1K7VGcgv-136" value="" style="rounded=0;whiteSpace=wrap;html=1;" vertex="1" parent="1">
          <mxGeometry x="1113" y="260" width="120" height="60" as="geometry" />
        </mxCell>
        <mxCell id="zK0bSrZWnV2F1K7VGcgv-137" value="" style="rounded=0;whiteSpace=wrap;html=1;" vertex="1" parent="1">
          <mxGeometry x="753" y="320" width="120" height="60" as="geometry" />
        </mxCell>
        <mxCell id="zK0bSrZWnV2F1K7VGcgv-138" value="" style="rounded=0;whiteSpace=wrap;html=1;fillColor=#99FF33;" vertex="1" parent="1">
          <mxGeometry x="873" y="320" width="120" height="60" as="geometry" />
        </mxCell>
        <mxCell id="zK0bSrZWnV2F1K7VGcgv-139" value="" style="rounded=0;whiteSpace=wrap;html=1;fillColor=#99FF33;" vertex="1" parent="1">
          <mxGeometry x="993" y="320" width="120" height="60" as="geometry" />
        </mxCell>
        <mxCell id="zK0bSrZWnV2F1K7VGcgv-140" value="" style="rounded=0;whiteSpace=wrap;html=1;" vertex="1" parent="1">
          <mxGeometry x="1113" y="320" width="120" height="60" as="geometry" />
        </mxCell>
        <mxCell id="zK0bSrZWnV2F1K7VGcgv-141" value="&lt;font style=&quot;font-size: 18px;&quot;&gt;0&lt;/font&gt;" style="text;html=1;align=center;verticalAlign=middle;whiteSpace=wrap;rounded=0;" vertex="1" parent="1">
          <mxGeometry x="793.5" y="215.5" width="39" height="29" as="geometry" />
        </mxCell>
        <mxCell id="zK0bSrZWnV2F1K7VGcgv-142" value="&lt;font style=&quot;font-size: 18px;&quot;&gt;1&lt;/font&gt;" style="text;html=1;align=center;verticalAlign=middle;whiteSpace=wrap;rounded=0;" vertex="1" parent="1">
          <mxGeometry x="913.5" y="215.5" width="39" height="29" as="geometry" />
        </mxCell>
        <mxCell id="zK0bSrZWnV2F1K7VGcgv-143" value="&lt;font style=&quot;font-size: 18px;&quot;&gt;0&lt;/font&gt;" style="text;html=1;align=center;verticalAlign=middle;whiteSpace=wrap;rounded=0;" vertex="1" parent="1">
          <mxGeometry x="793.5" y="335.5" width="39" height="29" as="geometry" />
        </mxCell>
        <mxCell id="zK0bSrZWnV2F1K7VGcgv-144" value="&lt;font style=&quot;font-size: 18px;&quot;&gt;1&lt;/font&gt;" style="text;html=1;align=center;verticalAlign=middle;whiteSpace=wrap;rounded=0;" vertex="1" parent="1">
          <mxGeometry x="793.5" y="275.5" width="39" height="29" as="geometry" />
        </mxCell>
        <mxCell id="zK0bSrZWnV2F1K7VGcgv-145" value="&lt;font style=&quot;font-size: 18px;&quot;&gt;1&lt;/font&gt;" style="text;html=1;align=center;verticalAlign=middle;whiteSpace=wrap;rounded=0;" vertex="1" parent="1">
          <mxGeometry x="913.5" y="275.5" width="39" height="29" as="geometry" />
        </mxCell>
        <mxCell id="zK0bSrZWnV2F1K7VGcgv-146" value="&lt;font style=&quot;font-size: 18px;&quot;&gt;1&lt;/font&gt;" style="text;html=1;align=center;verticalAlign=middle;whiteSpace=wrap;rounded=0;" vertex="1" parent="1">
          <mxGeometry x="913.5" y="335.5" width="39" height="29" as="geometry" />
        </mxCell>
        <mxCell id="zK0bSrZWnV2F1K7VGcgv-147" value="&lt;font style=&quot;font-size: 18px;&quot;&gt;1&lt;/font&gt;" style="text;html=1;align=center;verticalAlign=middle;whiteSpace=wrap;rounded=0;" vertex="1" parent="1">
          <mxGeometry x="1033.5" y="335.5" width="39" height="29" as="geometry" />
        </mxCell>
        <mxCell id="zK0bSrZWnV2F1K7VGcgv-148" value="&lt;font style=&quot;font-size: 18px;&quot;&gt;1&lt;/font&gt;" style="text;html=1;align=center;verticalAlign=middle;whiteSpace=wrap;rounded=0;" vertex="1" parent="1">
          <mxGeometry x="1033.5" y="275.5" width="39" height="29" as="geometry" />
        </mxCell>
        <mxCell id="zK0bSrZWnV2F1K7VGcgv-149" value="&lt;font style=&quot;font-size: 18px;&quot;&gt;1&lt;/font&gt;" style="text;html=1;align=center;verticalAlign=middle;whiteSpace=wrap;rounded=0;" vertex="1" parent="1">
          <mxGeometry x="1033.5" y="215.5" width="39" height="29" as="geometry" />
        </mxCell>
        <mxCell id="zK0bSrZWnV2F1K7VGcgv-150" value="&lt;font style=&quot;font-size: 18px;&quot;&gt;1&lt;/font&gt;" style="text;html=1;align=center;verticalAlign=middle;whiteSpace=wrap;rounded=0;" vertex="1" parent="1">
          <mxGeometry x="1153.5" y="335.5" width="39" height="29" as="geometry" />
        </mxCell>
        <mxCell id="zK0bSrZWnV2F1K7VGcgv-151" value="&lt;font style=&quot;font-size: 18px;&quot;&gt;1&lt;/font&gt;" style="text;html=1;align=center;verticalAlign=middle;whiteSpace=wrap;rounded=0;" vertex="1" parent="1">
          <mxGeometry x="1153.5" y="275.5" width="39" height="29" as="geometry" />
        </mxCell>
        <mxCell id="zK0bSrZWnV2F1K7VGcgv-152" value="&lt;font style=&quot;font-size: 18px;&quot;&gt;1&lt;/font&gt;" style="text;html=1;align=center;verticalAlign=middle;whiteSpace=wrap;rounded=0;" vertex="1" parent="1">
          <mxGeometry x="1153.5" y="215.5" width="39" height="29" as="geometry" />
        </mxCell>
        <mxCell id="zK0bSrZWnV2F1K7VGcgv-177" value="" style="rounded=0;whiteSpace=wrap;html=1;" vertex="1" parent="1">
          <mxGeometry x="248" y="401" width="120" height="60" as="geometry" />
        </mxCell>
        <mxCell id="zK0bSrZWnV2F1K7VGcgv-178" value="" style="rounded=0;whiteSpace=wrap;html=1;" vertex="1" parent="1">
          <mxGeometry x="368" y="401" width="120" height="60" as="geometry" />
        </mxCell>
        <mxCell id="zK0bSrZWnV2F1K7VGcgv-179" value="" style="rounded=0;whiteSpace=wrap;html=1;fillColor=#99FF33;" vertex="1" parent="1">
          <mxGeometry x="488" y="401" width="120" height="60" as="geometry" />
        </mxCell>
        <mxCell id="zK0bSrZWnV2F1K7VGcgv-180" value="" style="rounded=0;whiteSpace=wrap;html=1;fillColor=#99FF33;" vertex="1" parent="1">
          <mxGeometry x="608" y="401" width="120" height="60" as="geometry" />
        </mxCell>
        <mxCell id="zK0bSrZWnV2F1K7VGcgv-181" value="" style="rounded=0;whiteSpace=wrap;html=1;" vertex="1" parent="1">
          <mxGeometry x="248" y="461" width="120" height="60" as="geometry" />
        </mxCell>
        <mxCell id="zK0bSrZWnV2F1K7VGcgv-182" value="" style="rounded=0;whiteSpace=wrap;html=1;" vertex="1" parent="1">
          <mxGeometry x="368" y="461" width="120" height="60" as="geometry" />
        </mxCell>
        <mxCell id="zK0bSrZWnV2F1K7VGcgv-183" value="" style="rounded=0;whiteSpace=wrap;html=1;fillColor=#99FF33;" vertex="1" parent="1">
          <mxGeometry x="488" y="461" width="120" height="60" as="geometry" />
        </mxCell>
        <mxCell id="zK0bSrZWnV2F1K7VGcgv-184" value="" style="rounded=0;whiteSpace=wrap;html=1;fillColor=#99FF33;" vertex="1" parent="1">
          <mxGeometry x="608" y="461" width="120" height="60" as="geometry" />
        </mxCell>
        <mxCell id="zK0bSrZWnV2F1K7VGcgv-185" value="" style="rounded=0;whiteSpace=wrap;html=1;" vertex="1" parent="1">
          <mxGeometry x="248" y="521" width="120" height="60" as="geometry" />
        </mxCell>
        <mxCell id="zK0bSrZWnV2F1K7VGcgv-186" value="" style="rounded=0;whiteSpace=wrap;html=1;" vertex="1" parent="1">
          <mxGeometry x="368" y="521" width="120" height="60" as="geometry" />
        </mxCell>
        <mxCell id="zK0bSrZWnV2F1K7VGcgv-187" value="" style="rounded=0;whiteSpace=wrap;html=1;" vertex="1" parent="1">
          <mxGeometry x="488" y="521" width="120" height="60" as="geometry" />
        </mxCell>
        <mxCell id="zK0bSrZWnV2F1K7VGcgv-188" value="" style="rounded=0;whiteSpace=wrap;html=1;" vertex="1" parent="1">
          <mxGeometry x="608" y="521" width="120" height="60" as="geometry" />
        </mxCell>
        <mxCell id="zK0bSrZWnV2F1K7VGcgv-189" value="&lt;font style=&quot;font-size: 18px;&quot;&gt;0&lt;/font&gt;" style="text;html=1;align=center;verticalAlign=middle;whiteSpace=wrap;rounded=0;" vertex="1" parent="1">
          <mxGeometry x="288.5" y="416.5" width="35.5" height="29" as="geometry" />
        </mxCell>
        <mxCell id="zK0bSrZWnV2F1K7VGcgv-190" value="&lt;font style=&quot;font-size: 18px;&quot;&gt;1&lt;/font&gt;" style="text;html=1;align=center;verticalAlign=middle;whiteSpace=wrap;rounded=0;" vertex="1" parent="1">
          <mxGeometry x="408.5" y="416.5" width="39" height="29" as="geometry" />
        </mxCell>
        <mxCell id="zK0bSrZWnV2F1K7VGcgv-191" value="&lt;font style=&quot;font-size: 18px;&quot;&gt;0&lt;/font&gt;" style="text;html=1;align=center;verticalAlign=middle;whiteSpace=wrap;rounded=0;" vertex="1" parent="1">
          <mxGeometry x="288.5" y="536.5" width="39" height="29" as="geometry" />
        </mxCell>
        <mxCell id="zK0bSrZWnV2F1K7VGcgv-192" value="&lt;font style=&quot;font-size: 18px;&quot;&gt;1&lt;/font&gt;" style="text;html=1;align=center;verticalAlign=middle;whiteSpace=wrap;rounded=0;" vertex="1" parent="1">
          <mxGeometry x="288.5" y="476.5" width="39" height="29" as="geometry" />
        </mxCell>
        <mxCell id="zK0bSrZWnV2F1K7VGcgv-193" value="&lt;font style=&quot;font-size: 18px;&quot;&gt;1&lt;/font&gt;" style="text;html=1;align=center;verticalAlign=middle;whiteSpace=wrap;rounded=0;" vertex="1" parent="1">
          <mxGeometry x="408.5" y="476.5" width="39" height="29" as="geometry" />
        </mxCell>
        <mxCell id="zK0bSrZWnV2F1K7VGcgv-194" value="&lt;font style=&quot;font-size: 18px;&quot;&gt;1&lt;/font&gt;" style="text;html=1;align=center;verticalAlign=middle;whiteSpace=wrap;rounded=0;" vertex="1" parent="1">
          <mxGeometry x="408.5" y="536.5" width="39" height="29" as="geometry" />
        </mxCell>
        <mxCell id="zK0bSrZWnV2F1K7VGcgv-195" value="&lt;font style=&quot;font-size: 18px;&quot;&gt;1&lt;/font&gt;" style="text;html=1;align=center;verticalAlign=middle;whiteSpace=wrap;rounded=0;" vertex="1" parent="1">
          <mxGeometry x="528.5" y="536.5" width="39" height="29" as="geometry" />
        </mxCell>
        <mxCell id="zK0bSrZWnV2F1K7VGcgv-196" value="&lt;font style=&quot;font-size: 18px;&quot;&gt;1&lt;/font&gt;" style="text;html=1;align=center;verticalAlign=middle;whiteSpace=wrap;rounded=0;" vertex="1" parent="1">
          <mxGeometry x="528.5" y="476.5" width="39" height="29" as="geometry" />
        </mxCell>
        <mxCell id="zK0bSrZWnV2F1K7VGcgv-197" value="&lt;font style=&quot;font-size: 18px;&quot;&gt;1&lt;/font&gt;" style="text;html=1;align=center;verticalAlign=middle;whiteSpace=wrap;rounded=0;" vertex="1" parent="1">
          <mxGeometry x="528.5" y="416.5" width="39" height="29" as="geometry" />
        </mxCell>
        <mxCell id="zK0bSrZWnV2F1K7VGcgv-198" value="&lt;font style=&quot;font-size: 18px;&quot;&gt;1&lt;/font&gt;" style="text;html=1;align=center;verticalAlign=middle;whiteSpace=wrap;rounded=0;" vertex="1" parent="1">
          <mxGeometry x="648.5" y="536.5" width="39" height="29" as="geometry" />
        </mxCell>
        <mxCell id="zK0bSrZWnV2F1K7VGcgv-199" value="&lt;font style=&quot;font-size: 18px;&quot;&gt;1&lt;/font&gt;" style="text;html=1;align=center;verticalAlign=middle;whiteSpace=wrap;rounded=0;" vertex="1" parent="1">
          <mxGeometry x="648.5" y="476.5" width="39" height="29" as="geometry" />
        </mxCell>
        <mxCell id="zK0bSrZWnV2F1K7VGcgv-200" value="&lt;font style=&quot;font-size: 18px;&quot;&gt;1&lt;/font&gt;" style="text;html=1;align=center;verticalAlign=middle;whiteSpace=wrap;rounded=0;" vertex="1" parent="1">
          <mxGeometry x="648.5" y="416.5" width="39" height="29" as="geometry" />
        </mxCell>
        <mxCell id="zK0bSrZWnV2F1K7VGcgv-201" value="" style="rounded=0;whiteSpace=wrap;html=1;" vertex="1" parent="1">
          <mxGeometry x="753" y="401" width="120" height="60" as="geometry" />
        </mxCell>
        <mxCell id="zK0bSrZWnV2F1K7VGcgv-202" value="" style="rounded=0;whiteSpace=wrap;html=1;" vertex="1" parent="1">
          <mxGeometry x="873" y="401" width="120" height="60" as="geometry" />
        </mxCell>
        <mxCell id="zK0bSrZWnV2F1K7VGcgv-203" value="" style="rounded=0;whiteSpace=wrap;html=1;" vertex="1" parent="1">
          <mxGeometry x="993" y="401" width="120" height="60" as="geometry" />
        </mxCell>
        <mxCell id="zK0bSrZWnV2F1K7VGcgv-204" value="" style="rounded=0;whiteSpace=wrap;html=1;" vertex="1" parent="1">
          <mxGeometry x="1113" y="401" width="120" height="60" as="geometry" />
        </mxCell>
        <mxCell id="zK0bSrZWnV2F1K7VGcgv-205" value="" style="rounded=0;whiteSpace=wrap;html=1;" vertex="1" parent="1">
          <mxGeometry x="753" y="461" width="120" height="60" as="geometry" />
        </mxCell>
        <mxCell id="zK0bSrZWnV2F1K7VGcgv-206" value="" style="rounded=0;whiteSpace=wrap;html=1;" vertex="1" parent="1">
          <mxGeometry x="873" y="461" width="120" height="60" as="geometry" />
        </mxCell>
        <mxCell id="zK0bSrZWnV2F1K7VGcgv-207" value="" style="rounded=0;whiteSpace=wrap;html=1;fillColor=#99FF33;" vertex="1" parent="1">
          <mxGeometry x="993" y="461" width="120" height="60" as="geometry" />
        </mxCell>
        <mxCell id="zK0bSrZWnV2F1K7VGcgv-208" value="" style="rounded=0;whiteSpace=wrap;html=1;fillColor=#99FF33;" vertex="1" parent="1">
          <mxGeometry x="1113" y="461" width="120" height="60" as="geometry" />
        </mxCell>
        <mxCell id="zK0bSrZWnV2F1K7VGcgv-209" value="" style="rounded=0;whiteSpace=wrap;html=1;" vertex="1" parent="1">
          <mxGeometry x="753" y="521" width="120" height="60" as="geometry" />
        </mxCell>
        <mxCell id="zK0bSrZWnV2F1K7VGcgv-210" value="" style="rounded=0;whiteSpace=wrap;html=1;" vertex="1" parent="1">
          <mxGeometry x="873" y="521" width="120" height="60" as="geometry" />
        </mxCell>
        <mxCell id="zK0bSrZWnV2F1K7VGcgv-211" value="" style="rounded=0;whiteSpace=wrap;html=1;fillColor=#99FF33;" vertex="1" parent="1">
          <mxGeometry x="993" y="521" width="120" height="60" as="geometry" />
        </mxCell>
        <mxCell id="zK0bSrZWnV2F1K7VGcgv-212" value="" style="rounded=0;whiteSpace=wrap;html=1;fillColor=#99FF33;" vertex="1" parent="1">
          <mxGeometry x="1113" y="521" width="120" height="60" as="geometry" />
        </mxCell>
        <mxCell id="zK0bSrZWnV2F1K7VGcgv-213" value="&lt;font style=&quot;font-size: 18px;&quot;&gt;0&lt;/font&gt;" style="text;html=1;align=center;verticalAlign=middle;whiteSpace=wrap;rounded=0;" vertex="1" parent="1">
          <mxGeometry x="793.5" y="416.5" width="39" height="29" as="geometry" />
        </mxCell>
        <mxCell id="zK0bSrZWnV2F1K7VGcgv-214" value="&lt;font style=&quot;font-size: 18px;&quot;&gt;1&lt;/font&gt;" style="text;html=1;align=center;verticalAlign=middle;whiteSpace=wrap;rounded=0;" vertex="1" parent="1">
          <mxGeometry x="913.5" y="416.5" width="39" height="29" as="geometry" />
        </mxCell>
        <mxCell id="zK0bSrZWnV2F1K7VGcgv-215" value="&lt;font style=&quot;font-size: 18px;&quot;&gt;0&lt;/font&gt;" style="text;html=1;align=center;verticalAlign=middle;whiteSpace=wrap;rounded=0;" vertex="1" parent="1">
          <mxGeometry x="793.5" y="536.5" width="39" height="29" as="geometry" />
        </mxCell>
        <mxCell id="zK0bSrZWnV2F1K7VGcgv-216" value="&lt;font style=&quot;font-size: 18px;&quot;&gt;1&lt;/font&gt;" style="text;html=1;align=center;verticalAlign=middle;whiteSpace=wrap;rounded=0;" vertex="1" parent="1">
          <mxGeometry x="793.5" y="476.5" width="39" height="29" as="geometry" />
        </mxCell>
        <mxCell id="zK0bSrZWnV2F1K7VGcgv-217" value="&lt;font style=&quot;font-size: 18px;&quot;&gt;1&lt;/font&gt;" style="text;html=1;align=center;verticalAlign=middle;whiteSpace=wrap;rounded=0;" vertex="1" parent="1">
          <mxGeometry x="913.5" y="476.5" width="39" height="29" as="geometry" />
        </mxCell>
        <mxCell id="zK0bSrZWnV2F1K7VGcgv-218" value="&lt;font style=&quot;font-size: 18px;&quot;&gt;1&lt;/font&gt;" style="text;html=1;align=center;verticalAlign=middle;whiteSpace=wrap;rounded=0;" vertex="1" parent="1">
          <mxGeometry x="913.5" y="536.5" width="39" height="29" as="geometry" />
        </mxCell>
        <mxCell id="zK0bSrZWnV2F1K7VGcgv-219" value="&lt;font style=&quot;font-size: 18px;&quot;&gt;1&lt;/font&gt;" style="text;html=1;align=center;verticalAlign=middle;whiteSpace=wrap;rounded=0;" vertex="1" parent="1">
          <mxGeometry x="1033.5" y="536.5" width="39" height="29" as="geometry" />
        </mxCell>
        <mxCell id="zK0bSrZWnV2F1K7VGcgv-220" value="&lt;font style=&quot;font-size: 18px;&quot;&gt;1&lt;/font&gt;" style="text;html=1;align=center;verticalAlign=middle;whiteSpace=wrap;rounded=0;" vertex="1" parent="1">
          <mxGeometry x="1033.5" y="476.5" width="39" height="29" as="geometry" />
        </mxCell>
        <mxCell id="zK0bSrZWnV2F1K7VGcgv-221" value="&lt;font style=&quot;font-size: 18px;&quot;&gt;1&lt;/font&gt;" style="text;html=1;align=center;verticalAlign=middle;whiteSpace=wrap;rounded=0;" vertex="1" parent="1">
          <mxGeometry x="1033.5" y="416.5" width="39" height="29" as="geometry" />
        </mxCell>
        <mxCell id="zK0bSrZWnV2F1K7VGcgv-222" value="&lt;font style=&quot;font-size: 18px;&quot;&gt;1&lt;/font&gt;" style="text;html=1;align=center;verticalAlign=middle;whiteSpace=wrap;rounded=0;" vertex="1" parent="1">
          <mxGeometry x="1153.5" y="536.5" width="39" height="29" as="geometry" />
        </mxCell>
        <mxCell id="zK0bSrZWnV2F1K7VGcgv-223" value="&lt;font style=&quot;font-size: 18px;&quot;&gt;1&lt;/font&gt;" style="text;html=1;align=center;verticalAlign=middle;whiteSpace=wrap;rounded=0;" vertex="1" parent="1">
          <mxGeometry x="1153.5" y="476.5" width="39" height="29" as="geometry" />
        </mxCell>
        <mxCell id="zK0bSrZWnV2F1K7VGcgv-224" value="&lt;font style=&quot;font-size: 18px;&quot;&gt;1&lt;/font&gt;" style="text;html=1;align=center;verticalAlign=middle;whiteSpace=wrap;rounded=0;" vertex="1" parent="1">
          <mxGeometry x="1153.5" y="416.5" width="39" height="29" as="geometry" />
        </mxCell>
        <mxCell id="zK0bSrZWnV2F1K7VGcgv-225" value="&lt;font style=&quot;font-size: 24px;&quot;&gt;1x1 Matrices&lt;/font&gt;" style="text;html=1;align=center;verticalAlign=middle;resizable=0;points=[];autosize=1;strokeColor=none;fillColor=none;" vertex="1" parent="1">
          <mxGeometry x="56" y="-19.5" width="154" height="41" as="geometry" />
        </mxCell>
        <mxCell id="zK0bSrZWnV2F1K7VGcgv-226" value="&lt;font style=&quot;font-size: 24px;&quot;&gt;2x2 Matrices&lt;/font&gt;" style="text;html=1;align=center;verticalAlign=middle;resizable=0;points=[];autosize=1;strokeColor=none;fillColor=none;" vertex="1" parent="1">
          <mxGeometry x="57" y="209.5" width="154" height="41" as="geometry" />
        </mxCell>
        <mxCell id="zK0bSrZWnV2F1K7VGcgv-227" value="&lt;font style=&quot;font-size: 24px;&quot;&gt;3x3 Matrices&lt;/font&gt;" style="text;html=1;align=center;verticalAlign=middle;resizable=0;points=[];autosize=1;strokeColor=none;fillColor=none;" vertex="1" parent="1">
          <mxGeometry x="57" y="634" width="154" height="41" as="geometry" />
        </mxCell>
        <mxCell id="zK0bSrZWnV2F1K7VGcgv-229" value="&lt;font style=&quot;font-size: 18px;&quot;&gt;Matrice Count = 0&lt;/font&gt;" style="rounded=1;whiteSpace=wrap;html=1;" vertex="1" parent="1">
          <mxGeometry x="38" y="-191" width="184" height="71" as="geometry" />
        </mxCell>
        <mxCell id="zK0bSrZWnV2F1K7VGcgv-230" value="&lt;font style=&quot;font-size: 18px;&quot;&gt;Matrice Count = 10&lt;/font&gt;" style="rounded=1;whiteSpace=wrap;html=1;" vertex="1" parent="1">
          <mxGeometry x="42" y="51" width="184" height="71" as="geometry" />
        </mxCell>
        <mxCell id="zK0bSrZWnV2F1K7VGcgv-231" value="&lt;font style=&quot;font-size: 18px;&quot;&gt;Matrice Count = 14&lt;/font&gt;" style="rounded=1;whiteSpace=wrap;html=1;" vertex="1" parent="1">
          <mxGeometry x="41" y="260" width="184" height="71" as="geometry" />
        </mxCell>
        <mxCell id="zK0bSrZWnV2F1K7VGcgv-232" value="&lt;font style=&quot;font-size: 18px;&quot;&gt;Matrice Count = 15&lt;/font&gt;" style="rounded=1;whiteSpace=wrap;html=1;" vertex="1" parent="1">
          <mxGeometry x="41" y="682.5" width="184" height="71" as="geometry" />
        </mxCell>
        <mxCell id="zK0bSrZWnV2F1K7VGcgv-239" style="edgeStyle=orthogonalEdgeStyle;rounded=0;orthogonalLoop=1;jettySize=auto;html=1;" edge="1" parent="1" source="zK0bSrZWnV2F1K7VGcgv-235">
          <mxGeometry relative="1" as="geometry">
            <mxPoint x="-63.66666666666697" y="230" as="targetPoint" />
          </mxGeometry>
        </mxCell>
        <mxCell id="zK0bSrZWnV2F1K7VGcgv-235" value="" style="shape=note;whiteSpace=wrap;html=1;backgroundOutline=1;fontColor=#000000;darkOpacity=0.05;fillColor=#FFF9B2;strokeColor=none;fillStyle=solid;direction=west;gradientDirection=north;gradientColor=#FFF2A1;shadow=1;size=20;pointerEvents=1;" vertex="1" parent="1">
          <mxGeometry x="-999" y="103.25" width="540" height="253.5" as="geometry" />
        </mxCell>
        <mxCell id="zK0bSrZWnV2F1K7VGcgv-236" value="&lt;font style=&quot;font-size: 24px;&quot;&gt;Given a m * n matrix of ones and zeros,&amp;nbsp;&lt;/font&gt;&lt;div&gt;&lt;font style=&quot;font-size: 24px;&quot;&gt;return how many square submatrices have all ones.&lt;/font&gt;&lt;/div&gt;" style="text;whiteSpace=wrap;html=1;" vertex="1" parent="1">
          <mxGeometry x="-981" y="215.75" width="499" height="93" as="geometry" />
        </mxCell>
        <mxCell id="zK0bSrZWnV2F1K7VGcgv-238" value="&lt;font style=&quot;font-size: 36px;&quot;&gt;Q. Count Square Submatrices with all ones&lt;/font&gt;" style="text;whiteSpace=wrap;html=1;" vertex="1" parent="1">
          <mxGeometry x="-981" y="115.75" width="539.83" height="100" as="geometry" />
        </mxCell>
        <mxCell id="zK0bSrZWnV2F1K7VGcgv-242" style="edgeStyle=orthogonalEdgeStyle;rounded=0;orthogonalLoop=1;jettySize=auto;html=1;" edge="1" parent="1" source="zK0bSrZWnV2F1K7VGcgv-240">
          <mxGeometry relative="1" as="geometry">
            <mxPoint x="1753.2857142857147" y="295.5" as="targetPoint" />
          </mxGeometry>
        </mxCell>
        <mxCell id="zK0bSrZWnV2F1K7VGcgv-240" value="" style="rounded=0;whiteSpace=wrap;html=1;fillColor=none;" vertex="1" parent="1">
          <mxGeometry x="-37" y="-252.5" width="1320" height="1096" as="geometry" />
        </mxCell>
        <mxCell id="zK0bSrZWnV2F1K7VGcgv-241" value="&lt;font style=&quot;font-size: 18px;&quot;&gt;Questions Demand&lt;/font&gt;" style="text;html=1;align=center;verticalAlign=middle;whiteSpace=wrap;rounded=0;" vertex="1" parent="1">
          <mxGeometry x="571.25" y="-311" width="193.5" height="30" as="geometry" />
        </mxCell>
        <mxCell id="zK0bSrZWnV2F1K7VGcgv-243" value="" style="rounded=0;whiteSpace=wrap;html=1;fillColor=none;" vertex="1" parent="1">
          <mxGeometry x="1777" y="-252.5" width="1320" height="1096" as="geometry" />
        </mxCell>
        <mxCell id="zK0bSrZWnV2F1K7VGcgv-244" value="&lt;font style=&quot;font-size: 18px;&quot;&gt;Solutions Approach&lt;/font&gt;" style="text;html=1;align=center;verticalAlign=middle;whiteSpace=wrap;rounded=0;" vertex="1" parent="1">
          <mxGeometry x="2374" y="-311" width="193.5" height="30" as="geometry" />
        </mxCell>
      </root>
    </mxGraphModel>
  </diagram>
</mxfile>
